<svg xmlns="http://www.w3.org/2000/svg" width="215.78" height="35" viewBox="0 0 215.78 35"><rect class="svg__rect" x="0" y="0" width="127.25" height="35" fill="#81E29D"/><rect class="svg__rect" x="125.25" y="0" width="90.53" height="35" fill="#DCC6A5"/><path class="svg__text" d="M15.70 22L14.22 22L14.22 13.47L17.48 13.47Q18.91 13.47 19.75 14.21Q20.59 14.96 20.59 16.18L20.59 16.18Q20.59 17.44 19.77 18.13Q18.95 18.83 17.46 18.83L17.46 18.83L15.70 18.83L15.70 22ZM15.70 14.66L15.70 17.64L17.48 17.64Q18.27 17.64 18.69 17.27Q19.10 16.90 19.10 16.19L19.10 16.19Q19.10 15.50 18.68 15.09Q18.26 14.68 17.52 14.66L17.52 14.66L15.70 14.66ZM24.61 18.00L24.61 18.00L24.61 17.52Q24.61 16.28 25.05 15.32Q25.49 14.37 26.30 13.86Q27.10 13.35 28.14 13.35Q29.19 13.35 29.99 13.85Q30.80 14.35 31.24 15.29Q31.68 16.23 31.68 17.48L31.68 17.48L31.68 17.96Q31.68 19.21 31.25 20.16Q30.82 21.10 30.01 21.61Q29.21 22.12 28.16 22.12L28.16 22.12Q27.12 22.12 26.31 21.61Q25.50 21.10 25.05 20.17Q24.61 19.23 24.61 18.00ZM26.09 17.46L26.09 17.96Q26.09 19.36 26.64 20.13Q27.18 20.90 28.16 20.90L28.16 20.90Q29.14 20.90 29.67 20.15Q30.20 19.40 30.20 17.96L30.20 17.96L30.20 17.51Q30.20 16.09 29.67 15.34Q29.13 14.58 28.14 14.58L28.14 14.58Q27.18 14.58 26.64 15.33Q26.10 16.09 26.09 17.46L26.09 17.46ZM37.53 22L35.56 13.47L37.03 13.47L38.36 19.88L39.99 13.47L41.23 13.47L42.84 19.89L44.15 13.47L45.62 13.47L43.65 22L42.24 22L40.61 15.77L38.96 22L37.53 22ZM55.27 22L49.70 22L49.70 13.47L55.23 13.47L55.23 14.66L51.18 14.66L51.18 17.02L54.68 17.02L54.68 18.19L51.18 18.19L51.18 20.82L55.27 20.82L55.27 22ZM60.95 22L59.47 22L59.47 13.47L62.47 13.47Q63.95 13.47 64.75 14.13Q65.55 14.79 65.55 16.05L65.55 16.05Q65.55 16.90 65.14 17.48Q64.72 18.06 63.99 18.37L63.99 18.37L65.90 21.92L65.90 22L64.31 22L62.60 18.71L60.95 18.71L60.95 22ZM60.95 14.66L60.95 17.52L62.48 17.52Q63.23 17.52 63.65 17.15Q64.07 16.77 64.07 16.11L64.07 16.11Q64.07 15.43 63.68 15.05Q63.29 14.68 62.52 14.66L62.52 14.66L60.95 14.66ZM75.52 22L69.95 22L69.95 13.47L75.48 13.47L75.48 14.66L71.43 14.66L71.43 17.02L74.93 17.02L74.93 18.19L71.43 18.19L71.43 20.82L75.52 20.82L75.52 22ZM82.17 22L79.72 22L79.72 13.47L82.24 13.47Q83.37 13.47 84.25 13.97Q85.12 14.48 85.60 15.40Q86.08 16.33 86.08 17.52L86.08 17.52L86.08 17.95Q86.08 19.16 85.60 20.08Q85.12 21.00 84.22 21.50Q83.33 22 82.17 22L82.17 22ZM81.20 14.66L81.20 20.82L82.17 20.82Q83.33 20.82 83.96 20.09Q84.58 19.36 84.59 17.99L84.59 17.99L84.59 17.52Q84.59 16.13 83.99 15.40Q83.39 14.66 82.24 14.66L82.24 14.66L81.20 14.66ZM99.64 22L96.52 22L96.52 13.47L99.45 13.47Q100.89 13.47 101.65 14.05Q102.41 14.63 102.41 15.78L102.41 15.78Q102.41 16.36 102.09 16.83Q101.77 17.30 101.16 17.56L101.16 17.56Q101.86 17.75 102.23 18.26Q102.61 18.78 102.61 19.51L102.61 19.51Q102.61 20.71 101.84 21.36Q101.07 22 99.64 22L99.64 22ZM98.01 18.15L98.01 20.82L99.65 20.82Q100.35 20.82 100.74 20.47Q101.14 20.13 101.14 19.51L101.14 19.51Q101.14 18.18 99.78 18.15L99.78 18.15L98.01 18.15ZM98.01 14.66L98.01 17.06L99.46 17.06Q100.15 17.06 100.54 16.75Q100.93 16.43 100.93 15.86L100.93 15.86Q100.93 15.23 100.57 14.95Q100.21 14.66 99.45 14.66L99.45 14.66L98.01 14.66ZM109.12 18.86L106.26 13.47L107.90 13.47L109.87 17.51L111.83 13.47L113.47 13.47L110.61 18.86L110.61 22L109.12 22L109.12 18.86Z" fill="#FFFFFF"/><path class="svg__text" d="M141.82 22L139.44 22L139.44 13.60L146.03 13.60L146.03 15.44L141.82 15.44L141.82 17.28L145.53 17.28L145.53 19.12L141.82 19.12L141.82 22ZM152.04 22L149.62 22L153.32 13.60L155.67 13.60L159.38 22L156.92 22L156.25 20.37L152.70 20.37L152.04 22ZM154.48 15.93L153.39 18.61L155.56 18.61L154.48 15.93ZM168.08 22L163.54 22L163.54 13.60L167.84 13.60Q169.44 13.60 170.28 14.19Q171.13 14.79 171.13 15.79L171.13 15.79Q171.13 16.39 170.83 16.87Q170.53 17.34 169.99 17.62L169.99 17.62Q170.72 17.87 171.12 18.41Q171.53 18.94 171.53 19.70L171.53 19.70Q171.53 20.80 170.64 21.40Q169.75 22 168.08 22L168.08 22ZM165.89 18.58L165.89 20.28L167.89 20.28Q169.13 20.28 169.13 19.43L169.13 19.43Q169.13 18.58 167.89 18.58L167.89 18.58L165.89 18.58ZM165.89 15.31L165.89 16.94L167.52 16.94Q168.72 16.94 168.72 16.12L168.72 16.12Q168.72 15.31 167.52 15.31L167.52 15.31L165.89 15.31ZM178.63 22L176.25 22L176.25 13.60L180.09 13.60Q181.23 13.60 182.07 13.98Q182.91 14.35 183.37 15.06Q183.82 15.76 183.82 16.71L183.82 16.71Q183.82 17.62 183.39 18.30Q182.97 18.98 182.18 19.36L182.18 19.36L183.99 22L181.44 22L179.92 19.77L178.63 19.77L178.63 22ZM178.63 15.47L178.63 17.93L179.94 17.93Q180.68 17.93 181.05 17.61Q181.42 17.29 181.42 16.71L181.42 16.71Q181.42 16.12 181.05 15.79Q180.68 15.47 179.94 15.47L179.94 15.47L178.63 15.47ZM190.99 22L188.61 22L188.61 13.60L190.99 13.60L190.99 22ZM195.73 17.80L195.73 17.80Q195.73 16.54 196.33 15.54Q196.93 14.55 197.98 13.99Q199.03 13.43 200.35 13.43L200.35 13.43Q201.51 13.43 202.43 13.84Q203.35 14.25 203.97 15.02L203.97 15.02L202.46 16.39Q201.64 15.40 200.47 15.40L200.47 15.40Q199.79 15.40 199.26 15.70Q198.72 16 198.43 16.54Q198.13 17.09 198.13 17.80L198.13 17.80Q198.13 18.51 198.43 19.05Q198.72 19.60 199.26 19.90Q199.79 20.20 200.47 20.20L200.47 20.20Q201.64 20.20 202.46 19.22L202.46 19.22L203.97 20.58Q203.36 21.35 202.43 21.76Q201.51 22.17 200.35 22.17L200.35 22.17Q199.03 22.17 197.98 21.61Q196.93 21.05 196.33 20.05Q195.73 19.06 195.73 17.80Z" fill="#FFFFFF" x="138.25"/></svg>